<?xml version="1.0"?>
<svg xmlns="http://www.w3.org/2000/svg" xmlns:xlink="http://www.w3.org/1999/xlink" xmlns:svgjs="http://svgjs.com/svgjs" version="1.1" width="512" height="512" x="0" y="0" viewBox="0 0 512 512" style="enable-background:new 0 0 512 512" xml:space="preserve"><g><g xmlns="http://www.w3.org/2000/svg"><path d="m368.149 364.58c-19.723-19.721-51.81-19.72-71.53 0l-18.55 18.55c-.063.063-7.144 6.257-21.346 6.257-16.601 0-44.867-8.477-85.251-48.861-38.92-38.92-48.021-66.528-48.802-82.834-.73-15.26 5.642-23.089 6.384-23.947l18.364-18.364c9.554-9.553 14.815-22.255 14.815-35.766 0-13.51-5.262-26.212-14.815-35.765l-34.889-34.89c-19.72-19.721-51.809-19.722-71.53 0l-18.55 18.55c-.363.363-.707.744-1.031 1.142-.923 1.135-22.591 28.354-21.369 77.036.692 27.563 8.517 56.684 23.257 86.554 17.94 36.354 46.32 74.07 84.351 112.101s75.746 66.41 112.101 84.35c29.87 14.741 58.991 22.565 86.554 23.257 1.334.034 2.651.05 3.953.05 46.199 0 71.979-20.521 73.083-21.419.397-.324.779-.668 1.142-1.031l18.549-18.549c9.554-9.553 14.815-22.255 14.814-35.766 0-13.51-5.261-26.211-14.814-35.765z" fill="#ffffff" data-original="#000000" style=""/><path d="m380.52 0c-72.497 0-131.479 58.981-131.479 131.479 0 52.346 31.056 99.399 78.313 120.279v34.367c0 5.372 2.873 10.334 7.532 13.009 2.313 1.328 4.891 1.991 7.468 1.991 2.614 0 5.228-.683 7.563-2.046l75.106-43.855c52.091-18.727 86.977-68.262 86.977-123.745 0-72.497-58.981-131.479-131.48-131.479zm15 146.479v17.479c0 8.284-6.716 15-15 15s-15-6.716-15-15v-17.479h-17.479c-8.284 0-15-6.716-15-15s6.716-15 15-15h17.479v-17.479c0-8.284 6.716-15 15-15s15 6.716 15 15v17.479h17.48c8.284 0 15 6.716 15 15s-6.716 15-15 15z" fill="#ffffff" data-original="#000000" style=""/></g></g></svg>
