<?xml version="1.0" encoding="UTF-8"?>
<svg xmlns="http://www.w3.org/2000/svg" xmlns:xlink="http://www.w3.org/1999/xlink" xmlns:svgjs="http://svgjs.com/svgjs" version="1.1" width="512" height="512" x="0" y="0" viewBox="0 0 64 64" style="enable-background:new 0 0 512 512" xml:space="preserve" class="">
  <g>
    <g xmlns="http://www.w3.org/2000/svg">
      <g>
        <path d="m10 50c-1.105 0-2-.895-2-2s.895-2 2-2 2-.895 2-2-.895-2-2-2h-2c-1.105 0-2-.895-2-2s.895-2 2-2h5c1.105 0 2-.895 2-2s-.895-2-2-2h-1c-1.105 0-2-.895-2-2s.895-2 2-2h7c1.105 0 2-.895 2-2s-.895-2-2-2h-11c-1.105 0-2-.895-2-2s.895-2 2-2h17.678.009c-1.757-1.235-3.132-2.97-3.926-5h-19.761v38h28v-5z" fill="#ff240d" data-original="#f0bc5e" style="" class=""/>
      </g>
      <g>
        <path d="m42.239 17c-.794 2.03-2.169 3.765-3.926 5h.01 11.677v10.055.004c4.5.498 8 4.309 8 8.941 0 4.971-4.029 9-9 9h-15v5h28v-38z" fill="#ff240d" data-original="#f0bc5e" style="" class=""/>
      </g>
      <g>
        <path d="m11 57h10v2h-10z" fill="#110318" data-original="#000000" style="" class=""/>
        <circle cx="6" cy="14" r="1" fill="#110318" data-original="#000000" style="" class=""/>
        <path d="m58 9h-14.7c-1.653-4.653-6.087-8-11.3-8s-9.647 3.347-11.3 8h-14.7c-2.757 0-5 2.243-5 5v44c0 2.757 2.243 5 5 5h20c2.757 0 5-2.243 5-5v-7h2v7c0 2.757 2.243 5 5 5h20c2.757 0 5-2.243 5-5v-44c0-2.757-2.243-5-5-5zm-26-6c5.514 0 10 4.486 10 10s-4.486 10-10 10-10-4.486-10-10 4.486-10 10-10zm-22 38h-2c-.552 0-1-.448-1-1s.448-1 1-1h5c1.654 0 3-1.346 3-3s-1.346-3-3-3h-1c-.552 0-1-.449-1-1s.448-1 1-1h7c.461 0 .893-.113 1.284-.3l6.299 7.199-12.952 11.101h-3.631c-.552 0-1-.448-1-1s.448-1 1-1c1.654 0 3-1.346 3-3s-1.346-3-3-3zm18.369-2h3.631 3.63l3.417 2.929c.268 2.891 1.774 5.421 3.979 7.071h-26.324zm12.631 2c0-4.411 3.589-8 8-8s8 3.589 8 8-3.589 8-8 8-8-3.589-8-8zm-1.856-1.623-1.726-1.479 11.582-13.236v6.338c-4.96 0-9.077 3.634-9.856 8.377zm-3.598-2.377h-3.546-3.546l-6.753-7.718c.186-.39.299-.822.299-1.282 0-1.654-1.346-3-3-3h-1.046l-1.75-2h9.177c1.899 1.261 4.173 2 6.619 2s4.72-.739 6.619-2h9.177zm-22-14 1.75 2h-7.296c-.552 0-1-.449-1-1s.448-1 1-1zm15.454 35c0 1.654-1.346 3-3 3h-20c-1.654 0-3-1.346-3-3v-44c0-1.654 1.346-3 3-3h14.181c-.11.652-.181 1.317-.181 2h-8v2h8.181c.386 2.284 1.416 4.346 2.9 6h-15.081c-1.654 0-3 1.346-3 3s1.346 3 3 3h11c.552 0 1 .449 1 1s-.448 1-1 1h-7c-1.654 0-3 1.346-3 3s1.346 3 3 3h1c.552 0 1 .448 1 1s-.448 1-1 1h-5c-1.654 0-3 1.346-3 3s1.346 3 3 3h2c.552 0 1 .448 1 1s-.448 1-1 1c-1.654 0-3 1.346-3 3s1.346 3 3 3h19zm32 0c0 1.654-1.346 3-3 3h-20c-1.654 0-3-1.346-3-3v-7h14c5.514 0 10-4.486 10-10 0-4.829-3.441-8.869-8-9.798v-10.202h-10.081c1.485-1.654 2.515-3.716 2.9-6h8.181v-2h-8c0-.683-.071-1.348-.181-2h14.181c1.654 0 3 1.346 3 3z" fill="#110318" data-original="#000000" style="" class=""/>
        <path d="m43 57h10v2h-10z" fill="#110318" data-original="#000000" style="" class=""/>
        <path d="m48 35h-1v2h1c.552 0 1 .448 1 1v9h2v-9c0-1.654-1.346-3-3-3z" fill="#110318" data-original="#000000" style="" class=""/>
        <path d="m32 21v-2c-2.757 0-5-2.243-5-5v-2c0-2.757 2.243-5 5-5s5 2.243 5 5v5c0 .551-.448 1-1 1s-1-.449-1-1v-3-1-1c0-1.654-1.346-3-3-3s-3 1.346-3 3v2c0 1.654 1.346 3 3 3 .352 0 .686-.072 1-.184v.184c0 1.654 1.346 3 3 3s3-1.346 3-3v-5c0-3.86-3.141-7-7-7s-7 3.14-7 7v2c0 3.86 3.141 7 7 7zm0-6c-.552 0-1-.449-1-1v-2c0-.551.448-1 1-1s1 .449 1 1v1 1c0 .551-.448 1-1 1z" fill="#110318" data-original="#000000" style="" class=""/>
      </g>
    </g>
  </g>
</svg>
